Coordinates
version=1
nRows=14
nColumns=40
inDegrees=yes

Units are S.I. units (second, meters, Newtons, ...)
Angles are in degrees.

endheader
time	pelvis_tilt	pelvis_list	pelvis_rotation	pelvis_tx	pelvis_ty	pelvis_tz	hip_flexion_r	hip_adduction_r	hip_rotation_r	knee_angle_r	knee_angle_r_beta	ankle_angle_r	subtalar_angle_r	mtp_angle_r	hip_flexion_l	hip_adduction_l	hip_rotation_l	knee_angle_l	knee_angle_l_beta	ankle_angle_l	subtalar_angle_l	mtp_angle_l	lumbar_extension	lumbar_bending	lumbar_rotation	arm_flex_r	arm_add_r	arm_rot_r	elbow_flex_r	pro_sup_r	wrist_flex_r	wrist_dev_r	arm_flex_l	arm_add_l	arm_rot_l	elbow_flex_l	pro_sup_l	wrist_flex_l	wrist_dev_l
     12.75000000	     -2.75857703	     -4.49709635	      2.40431317	      1.11397479	      0.93169958	      0.40421179	     31.56145163	     -7.24552311	     -5.52362393	     66.56565798	     66.56565798	     -3.25112121	    -14.05694281	      0.37173897	     14.76079945	     -4.87446713	     -4.60479954	     23.93720982	     23.93720982	     14.27526081	    -10.39382868	      1.17455481	    -12.57280724	      4.86586261	      0.79219900	      3.27097880	    -16.00393668	    -10.27500988	     28.20730884	     45.95305000	      0.00000000	      0.00000000	      9.87411548	    -14.45624178	     -4.58716295	     59.77389060	     46.52638090	      0.00000000	      0.00000000
     12.76285714	     -2.91042899	     -4.64431148	      1.89952644	      1.11274676	      0.93227757	      0.40420892	     32.22825850	     -6.96743151	     -5.56995879	     64.35719161	     64.35719161	     -2.95426949	    -13.69387944	      0.27384678	     14.30732658	     -5.07720493	     -5.01427933	     23.48292666	     23.48292666	     14.38883217	    -10.41226219	      1.24246413	    -12.60572221	      5.09735514	      0.56819977	      2.54214456	    -16.42747096	    -10.36476137	     27.76702331	     45.97756372	      0.00000000	      0.00000000	     10.47751568	    -14.57554727	     -4.66345502	     60.48237377	     46.55327129	      0.00000000	      0.00000000
     12.77571429	     -3.04604413	     -4.73817047	      1.34854961	      1.11143270	      0.93281476	      0.40428767	     32.77193375	     -6.66453364	     -5.52250104	     61.91452339	     61.91452339	     -2.94917954	    -13.32079825	     -0.32099537	     13.83522995	     -5.23004785	     -5.46794652	     23.03642736	     23.03642736	     14.44821695	    -10.36161723	      1.20242793	    -12.72157488	      5.20736641	      0.62254073	      1.67693229	    -16.84686756	    -10.63664519	     27.38817543	     46.02010542	      0.00000000	      0.00000000	     10.92522614	    -14.81526236	     -4.64509235	     62.26203767	     46.60103075	      0.00000000	      0.00000000
     12.78857143	     -3.12723196	     -4.90668483	      0.85545587	      1.11024066	      0.93336454	      0.40440866	     33.07308629	     -6.26873446	     -5.57553723	     59.19393242	     59.19393242	     -2.71626723	    -12.82010905	     -0.52963369	     13.30898437	     -5.44181028	     -5.81413277	     22.59213974	     22.59213974	     14.54499352	    -10.41440006	      1.20441196	    -12.84402576	      5.49362506	      0.51350444	      0.98898997	    -17.23668194	    -10.83997879	     27.17569699	     46.04648466	      0.00000000	      0.00000000	     11.46360891	    -15.07358020	     -4.69265862	     63.46203015	     46.63901483	      0.00000000	      0.00000000
     12.80142857	     -3.48654051	     -5.05486781	      0.34751816	      1.10880206	      0.93339393	      0.40483700	     33.60979532	     -5.88291817	     -5.69278432	     56.28394845	     56.28394845	     -2.47990868	    -12.18106721	     -0.39823891	     13.17722712	     -5.65031698	     -6.16868007	     22.26204394	     22.26204394	     14.61766142	    -10.53206264	      1.23346217	    -12.61636506	      5.62787657	      0.19441388	      0.41751765	    -17.52288583	    -10.93506787	     26.99950459	     46.05855828	      0.00000000	      0.00000000	     12.03019113	    -15.45201754	     -4.80127501	     64.03422887	     46.66339580	      0.00000000	      0.00000000
     12.81428571	     -3.64074499	     -5.26948075	     -0.10495228	      1.10753346	      0.93373842	      0.40531737	     33.68327044	     -5.41815507	     -5.92355667	     52.94409633	     52.94409633	     -2.19241160	    -11.36409481	     -0.34443384	     12.79065711	     -5.93122750	     -6.45891765	     21.88217669	     21.88217669	     14.68946018	    -10.56791578	      1.22751312	    -12.67541056	      5.86476644	      0.11225246	     -0.22788744	    -17.86505343	    -11.08222731	     26.83000779	     46.07505377	      0.00000000	      0.00000000	     12.53890609	    -15.55755516	     -4.79853339	     65.09842438	     46.68871779	      0.00000000	      0.00000000
     12.82714286	     -3.81898276	     -5.38944028	     -0.60760015	      1.10630633	      0.93390894	      0.40602614	     33.62830646	     -4.99265946	     -6.08672570	     49.25308468	     49.25308468	     -2.21509460	    -10.43832996	     -1.28762555	     12.40227075	     -6.14295706	     -6.92787901	     21.47839917	     21.47839917	     14.69068357	    -10.50378933	      0.87629360	    -12.74762669	      5.98393241	      0.13787798	     -1.02541025	    -18.03691325	    -11.71537507	     27.19202405	     46.11375607	      0.00000000	      0.00000000	     12.59441996	    -15.97427105	     -4.46039901	     67.79882047	     46.73579319	      0.00000000	      0.00000000
     12.84000000	     -4.03469924	     -5.56500249	     -1.07351410	      1.10507307	      0.93400453	      0.40693340	     33.43420298	     -4.48573443	     -6.35290047	     45.24611240	     45.24611240	     -1.92073528	     -9.20703977	     -1.32890587	     12.13036437	     -6.40202250	     -7.20914643	     21.19828062	     21.19828062	     14.75381557	    -10.63846058	      0.82310145	    -12.72113667	      6.18173336	     -0.00087527	     -1.40288255	    -18.16328621	    -11.90174534	     27.16405881	     46.12988023	      0.00000000	      0.00000000	     13.13689917	    -16.23219852	     -4.48871735	     68.52314063	     46.76323685	      0.00000000	      0.00000000
     12.85285714	     -4.28243645	     -5.70544987	     -1.55002024	      1.10397737	      0.93398521	      0.40805198	     33.09231332	     -3.98393253	     -6.67892089	     40.92567754	     40.92567754	     -1.63932942	     -7.72489407	     -1.30517430	     11.85782717	     -6.63868411	     -7.53758660	     20.87843450	     20.87843450	     14.85359072	    -10.74486130	      0.75282208	    -12.60244358	      6.26048326	     -0.07779278	     -1.82583057	    -18.24075184	    -12.08313174	     27.14342859	     46.14379692	      0.00000000	      0.00000000	     13.62912960	    -16.39967519	     -4.44890978	     69.38193755	     46.78576800	      0.00000000	      0.00000000
     12.86571429	     -4.61490629	     -5.75149129	     -2.06146512	      1.10289272	      0.93370849	      0.40941075	     32.70449604	     -3.47290406	     -6.87225136	     36.40241608	     36.40241608	     -1.28367933	     -6.08905890	     -1.13330955	     11.68302893	     -6.79223127	     -7.88832557	     20.58366090	     20.58366090	     14.89177823	    -10.84026770	      0.70716576	    -12.41143432	      6.32723560	     -0.09563276	     -2.15241658	    -18.11617513	    -12.21552372	     27.16587154	     46.15133848	      0.00000000	      0.00000000	     14.13261437	    -16.62743991	     -4.41815071	     70.17562365	     46.80580208	      0.00000000	      0.00000000
     12.87857143	     -4.66120247	     -5.68925552	     -2.50794898	      1.10223411	      0.93367055	      0.41071224	     31.75132964	     -3.20111892	     -7.51123557	     31.62299124	     31.62299124	     -1.21556689	     -3.74577300	     -1.98861642	     11.12996965	     -6.81657887	     -8.32871397	     20.20475210	     20.20475210	     14.89949779	    -10.82463212	      0.32306865	    -12.53735451	      6.21542284	     -0.04151881	     -2.69989116	    -18.02007617	    -13.07459689	     27.70297018	     46.19627241	      0.00000000	      0.00000000	     14.28183202	    -16.97017360	     -3.94244020	     72.16437650	     46.83812420	      0.00000000	      0.00000000
     12.89142857	     -4.79815694	     -5.68584927	     -2.95414016	      1.10161209	      0.93336229	      0.41237339	     30.80908441	     -2.68978460	     -7.89091203	     26.90010296	     26.90010296	     -0.97524638	     -1.78289588	     -1.46751599	     10.75495890	     -6.92303284	     -8.66397456	     19.98973903	     19.98973903	     15.00499797	    -10.98172600	      0.15850492	    -12.49615981	      6.15865145	     -0.04535027	     -2.94439942	    -17.78803580	    -13.41868319	     27.85486808	     46.21577810	      0.00000000	      0.00000000	     14.76630023	    -17.15462431	     -3.84851610	     72.90478030	     46.86237178	      0.00000000	      0.00000000
     12.90428571	     -4.95075113	     -5.63448041	     -3.33573684	      1.10120526	      0.93288674	      0.41410542	     29.79111879	     -2.21718701	     -8.35170799	     22.36355395	     22.36355395	     -0.74004646	      0.18491614	     -0.53254117	     10.40379404	     -6.97694938	     -8.95063454	     19.79418349	     19.79418349	     15.14393437	    -11.09633542	      0.00480597	    -12.37059624	      6.07438185	     -0.05994122	     -3.20748110	    -17.56444793	    -13.65899693	     27.96280143	     46.22764600	      0.00000000	      0.00000000	     15.16052488	    -17.25486258	     -3.72918096	     73.60353664	     46.87790472	      0.00000000	      0.00000000
     12.91714286	     -4.92897345	     -5.49564628	     -3.69453218	      1.10102689	      0.93242053	      0.41591991	     28.67556066	     -1.89740234	     -9.05607643	     18.45770616	     18.45770616	     -0.29250983	      2.44291484	      0.87833345	      9.85375259	     -6.93534868	     -9.29367053	     19.60956172	     19.60956172	     15.30323607	    -11.13235762	     -0.26022389	    -12.43372931	      5.86449830	     -0.00692384	     -3.47623288	    -17.27853197	    -14.08111510	     28.22575469	     46.24645931	      0.00000000	      0.00000000	     15.54347674	    -17.40305575	     -3.52042573	     74.53554816	     46.89636468	      0.00000000	      0.00000000
